<svg width="175" height="175" viewBox="0 0 175 175" fill="none" xmlns="http://www.w3.org/2000/svg">
<circle cx="87.5" cy="87.5" r="87" stroke="black"/>
<mask id="mask0_22303_20687" style="mask-type:alpha" maskUnits="userSpaceOnUse" x="0" y="0" width="175" height="175">
<circle cx="87.5" cy="87.5" r="87.5" fill="#D9D9D9"/>
</mask>
<g mask="url(#mask0_22303_20687)">
<path d="M72.3187 94.4561C81.1422 102.833 91.2322 112.577 90.3731 124.714C90.122 128.252 88.7928 131.845 86.1074 134.163C82.312 137.439 76.3847 137.789 73.2406 141.692C70.404 145.213 70.9987 150.67 73.7416 154.264C76.4856 157.856 80.9014 159.82 85.3286 160.735C95.4484 162.826 106.485 159.866 114.202 152.993C115.421 151.908 116.588 150.69 117.195 149.176C118.261 146.515 117.418 143.51 116.513 140.791C113.475 131.651 109.765 122.071 111.841 112.667C114.173 102.109 123.239 94.4037 127.574 84.4989C131.607 75.2855 131.179 64.2376 126.447 55.3637C124.67 52.0312 122.196 48.8994 118.777 47.2995C115.55 45.7891 111.845 45.7943 108.284 45.9034C94.6789 46.3211 70.2713 44.8467 60.6669 56.7516C50.3948 69.4827 62.9726 85.5812 72.3187 94.4561Z" fill="#FFE7FB"/>
<path d="M59.0603 163.679C57.6991 161.672 56.1908 159.676 54.1135 158.424C49.4539 155.617 43.1264 157.442 39.1797 161.187C35.232 164.932 33.1125 170.158 31.1052 175.216C30.0414 177.893 28.9786 180.572 27.9158 183.251C26.5659 186.65 25.2027 190.107 24.8621 193.749C24.5226 197.391 25.3405 201.309 27.8643 203.957C30.027 206.228 33.1526 207.305 36.2176 207.971C43.3517 209.518 50.7389 209.257 58.0355 208.988C83.9988 208.031 67.8231 176.591 59.0603 163.679Z" fill="#6987FF"/>
<path d="M112.673 181.792C113.45 177.471 113.693 173.065 114.54 168.756C115.454 164.103 117.073 159.587 119.323 155.413C120.558 153.123 122.161 150.788 124.618 149.935C127.017 149.103 129.712 149.901 131.861 151.252C138.358 155.335 140.769 163.476 142.68 170.906C144.992 179.895 147.304 188.882 149.616 197.869C150.083 199.683 150.337 202.055 148.724 203.006C148.094 203.375 147.329 203.406 146.598 203.426C135.859 203.708 123.041 205.211 112.475 203.071C105.753 201.709 106.872 202.405 108.591 195.828C109.829 191.092 111.799 186.658 112.673 181.792Z" fill="#6987FF"/>
<path d="M80.078 191.098C81.2334 194.042 82.5369 197.173 85.1832 198.903C88.8428 201.299 94.0293 200.057 97.1961 197.041C100.363 194.024 101.871 189.665 102.753 185.381C103.635 181.097 104.006 176.686 105.423 172.548C106.818 168.468 109.223 164.657 109.613 160.362C109.719 159.205 109.488 157.76 108.392 157.374C107.912 157.205 107.383 157.296 106.885 157.403C102.753 158.298 98.8474 160.211 94.6414 160.643C87.3736 161.389 75.5129 152.687 71.809 161.068C68.3881 168.808 77.3124 184.056 80.078 191.098Z" fill="#DAC8FF"/>
<path d="M75.5885 90.6713C73.0874 90.6949 70.5873 90.7196 68.0851 90.7443C67.3669 90.7515 66.5511 90.8019 66.0912 91.3534C65.5232 92.0324 65.8597 93.1385 66.5531 93.6879C67.2476 94.2363 68.1694 94.3762 69.046 94.4965C70.1737 94.6519 71.3003 94.8062 72.4279 94.9626C74.0175 95.1807 75.82 95.3423 77.0444 94.3072C78.2687 93.2712 77.8088 90.6486 76.21 90.771" fill="#F03FA3"/>
<path d="M110.756 91.927C108.255 91.9507 105.754 91.9753 103.254 92C102.534 92.0072 101.719 92.0577 101.258 92.6102C100.691 93.2892 101.026 94.3942 101.721 94.9426C102.414 95.491 103.337 95.6309 104.214 95.7512C105.34 95.9076 106.468 96.062 107.595 96.2184C109.184 96.4365 110.987 96.598 112.212 95.563C113.436 94.5269 112.976 91.9043 111.377 92.0257" fill="#F03FA3"/>
<path d="M28.9131 200.587L34.0882 176.79C36.8147 164.248 44.4797 153.342 55.3547 146.52L75.4689 133.906L76.0142 128.135L77.434 113.227L77.4751 112.805" stroke="black" stroke-miterlimit="10"/>
<path d="M142.118 97.9249C139.544 88.9142 130.658 43.4994 130.658 43.4994L111.102 42.486C119.791 50.1067 122.199 60.3232 122.199 60.3232C121.798 72.5656 119.905 82.2986 117.23 90.0459H117.22C114.133 99.0073 109.966 105.305 105.799 109.708C104.431 111.159 103.052 112.404 101.715 113.463C99.1324 115.532 96.6837 116.94 94.6568 117.876C91.3542 119.43 89.1216 119.77 89.1216 119.77C82.7427 117.384 77.6087 113.854 73.4727 109.708C55.3339 91.476 56.3525 61.0949 55.8998 60.3232C55.8998 60.3232 55.4893 47.8432 66.5104 40.1741L48.6011 39.2461C48.6011 39.2461 43.7377 66.91 40.6779 87.1692C37.6181 107.428 41.1542 120.772 54.6878 122.188C68.2214 123.604 119.552 122.188 119.552 122.188C119.552 122.188 149.049 122.188 142.118 97.9249Z" fill="black"/>
<path d="M101.694 113.288L101.715 113.463L102.281 119.452L103.649 133.907L110.398 138.146H110.419V138.156L123.763 146.52C134.638 153.343 142.303 164.249 145.03 176.79L148.25 191.615L150.205 200.588" stroke="black" stroke-miterlimit="10"/>
<path d="M68.6055 69.0235C68.6055 69.0235 74.5029 67.0142 80.4013 69.0235" stroke="black" stroke-width="2" stroke-miterlimit="10" stroke-linecap="round" stroke-linejoin="bevel"/>
<path d="M76.3911 77.8703C76.3911 79.5319 75.5454 80.8776 74.5031 80.8776C73.4619 80.8776 72.6162 79.5319 72.6162 77.8703C72.6162 76.2087 73.4619 74.8629 74.5031 74.8629C75.5454 74.8629 76.3911 76.2087 76.3911 77.8703Z" fill="black"/>
<path d="M110.24 69.0233C110.24 69.0233 104.342 67.0139 98.4443 69.0233" stroke="black" stroke-width="2" stroke-miterlimit="10" stroke-linecap="round" stroke-linejoin="bevel"/>
<path d="M102.454 77.8705C102.454 79.5321 103.299 80.8779 104.341 80.8779C105.383 80.8779 106.229 79.5321 106.229 77.8705C106.229 76.2089 105.383 74.8632 104.341 74.8632C103.299 74.8632 102.454 76.2089 102.454 77.8705Z" fill="black"/>
<path d="M88.1109 77.901C88.2292 78.1592 88.7457 82.5298 85.4431 85.3756C85.4431 85.3756 84.7599 88.2492 89.7138 88.3151" stroke="black" stroke-miterlimit="10"/>
<path d="M82.3291 97.2898C82.3291 97.2898 90.6495 100.048 97.0983 97.4318" stroke="black" stroke-miterlimit="10"/>
<path d="M56.9299 71.8164C56.9299 71.8164 50.0242 63.1287 46.4675 67.1567C42.9117 71.1847 49.9028 90.6959 60.8766 88.4108" stroke="black" stroke-miterlimit="10"/>
<path d="M50.9873 74.9664C50.9873 74.9664 56.1779 74.9952 58.391 79.1127" stroke="black" stroke-miterlimit="10"/>
<path d="M53.7412 79.1049C53.7412 79.1049 53.9069 77.3312 57.2311 77.5431" stroke="black" stroke-miterlimit="10"/>
<path d="M121.437 71.8165C121.437 71.8165 128.343 63.1288 131.898 67.1568C135.455 71.1848 128.463 90.696 117.49 88.4109" fill="#F7F6F2"/>
<path d="M127.573 74.9667C127.573 74.9667 122.382 74.9955 120.169 79.113" stroke="black" stroke-miterlimit="10"/>
<path d="M124.818 79.1049C124.818 79.1049 124.652 77.3312 121.328 77.5431" stroke="black" stroke-miterlimit="10"/>
<path d="M55.9004 60.3234C56.3531 61.095 55.3345 91.4761 73.4733 109.708C77.6093 113.854 82.7433 117.384 89.1222 119.77C89.1222 119.77 91.3548 119.431 94.6574 117.877C96.6843 116.94 99.133 115.532 101.715 113.463C103.053 112.404 104.432 111.159 105.8 109.708C109.967 105.305 114.134 99.0074 117.22 90.046H117.231C119.906 82.2987 121.799 72.5657 122.2 60.3234" stroke="black" stroke-miterlimit="10"/>
<path d="M114.029 50.6227C114.029 50.6227 92.6108 71.6721 56.9311 73.8749C56.9311 73.8749 45.9275 62.2231 48.6015 41.3043C51.2755 20.3856 96.4197 -3.53429 122.207 29.3367C122.207 29.3367 143.046 45.0782 121.436 73.8749C121.436 73.8749 122.679 68.5526 114.029 50.6227Z" fill="black"/>
<path d="M64.6602 140.684C64.6602 140.684 77.4303 154.53 90.753 158.516C90.753 158.516 104.986 156.509 113.674 140.192" stroke="black" stroke-miterlimit="10"/>
<path d="M62.2871 142.173C62.2871 142.173 71.8781 157.047 90.4377 161.765C90.4377 161.765 110.9 156.928 116.003 141.653" stroke="black" stroke-miterlimit="10"/>
<path d="M60.8945 143.046C60.8945 143.046 71.25 175.24 75.8109 200.587" stroke="black" stroke-miterlimit="10"/>
<path d="M50.3286 150.154C50.3286 150.154 46.0855 164.754 54.7362 174.033C63.3858 183.313 73.8606 190.841 73.8606 190.841" stroke="black" stroke-miterlimit="10"/>
<path d="M118.234 143.046C118.234 143.046 107.877 175.24 103.317 200.587" stroke="black" stroke-miterlimit="10"/>
<path d="M128.803 150.154C128.803 150.154 133.045 164.753 124.394 174.033C115.744 183.313 105.27 190.841 105.27 190.841" stroke="black" stroke-miterlimit="10"/>
<path d="M102.281 119.452C95.2337 121.859 82.98 125.862 76.0146 128.136L77.4345 113.228C80.768 115.851 84.6365 118.093 89.1223 119.77C89.1223 119.77 91.3549 119.432 94.6575 117.877C96.6844 116.941 99.1331 115.532 101.715 113.463L102.281 119.452Z" fill="black"/>
</g>
</svg>
